<?xml version="1.0" encoding="utf-8"?>
<!-- Generator: Adobe Illustrator 26.5.0, SVG Export Plug-In . SVG Version: 6.00 Build 0)  -->
<svg version="1.1" id="Capa_1" xmlns="http://www.w3.org/2000/svg" xmlns:xlink="http://www.w3.org/1999/xlink" x="0px" y="0px"
	 viewBox="0 0 4052.6 3373.7" style="enable-background:new 0 0 4052.6 3373.7;" xml:space="preserve">
<style type="text/css">
	.st0{fill:none;stroke:#FC758C;stroke-miterlimit:10;}
	.st1{fill:#FC758C;stroke:#FC758C;stroke-miterlimit:10;}
</style>
<g id="Layer_2">
	<g id="invisible_box">
		<rect x="1403.6" y="1321.3" class="st0" width="800" height="800"/>
	</g>
	<g id="Q3_icons">
		<g>
			<path class="st1" d="M1736.9,1388h-233.3c-18.4,0-33.3,14.9-33.3,33.3v233.3c0,18.4,14.9,33.3,33.3,33.3h233.3
				c18.4,0,33.3-14.9,33.3-33.3v-233.3C1770.2,1402.9,1755.3,1388,1736.9,1388z"/>
			<path class="st1" d="M2103.6,1388h-233.3c-18.4,0-33.3,14.9-33.3,33.3v233.3c0,18.4,14.9,33.3,33.3,33.3h233.3
				c18.4,0,33.3-14.9,33.3-33.3v-233.3C2136.9,1402.9,2122,1388,2103.6,1388z"/>
			<path class="st1" d="M1736.9,1754.6h-233.3c-18.4,0-33.3,14.9-33.3,33.3v233.3c0,18.4,14.9,33.3,33.3,33.3h233.3
				c18.4,0,33.3-14.9,33.3-33.3V1788C1770.2,1769.5,1755.3,1754.6,1736.9,1754.6z"/>
			<path class="st1" d="M2103.6,1754.6h-233.3c-18.4,0-33.3,14.9-33.3,33.3v233.3c0,18.4,14.9,33.3,33.3,33.3h233.3
				c18.4,0,33.3-14.9,33.3-33.3V1788C2136.9,1769.5,2122,1754.6,2103.6,1754.6z"/>
		</g>
	</g>
</g>
</svg>
